<svg xmlns="http://www.w3.org/2000/svg" width="240" height="360" viewBox="0 0 240 360">
  <defs>
    <linearGradient id="bg" x1="0" y1="0" x2="0" y2="1">
      <stop offset="0" stop-color="#3b6ea5"/>
      <stop offset="1" stop-color="#1c3a5e"/>
    </linearGradient>
    <radialGradient id="glow" cx="0.5" cy="0.35" r="0.7">
      <stop offset="0" stop-color="#ffffff" stop-opacity="0.18"/>
      <stop offset="1" stop-color="#ffffff" stop-opacity="0"/>
    </radialGradient>
  </defs>
  <rect width="240" height="360" fill="url(#bg)"/>
  <rect width="240" height="360" fill="url(#glow)"/>
  <!-- 装饰线 -->
  <rect x="0" y="0" width="240" height="6" fill="#ffd700"/>
  <path d="M0,40 Q240,28 240,40 L240,0 L0,0 Z" fill="#0a1420" opacity="0.35"/>
  <!-- 舰级徽章 -->
  <g transform="translate(16,14)">
    <rect width="42" height="20" rx="3" fill="#0a1420" opacity="0.75" stroke="#ffd700" stroke-width="1"/>
    <text x="21" y="15" font-size="11" font-weight="bold" text-anchor="middle" fill="#ffd700" font-family="Arial">CL</text>
  </g>
  <!-- 稀有度 -->
  <text x="228" y="26" font-size="12" text-anchor="end" fill="#ffd700" font-family="Arial">★★☆☆☆</text>
  <!-- 人物 -->
  <path d="M74,80 Q64,96 60,128 Q58,150 48,166 Q42,176 52,180 Q64,170 70,142 Q76,108 84,86 Q80,64 96,58 Q120,44 144,58 Q160,64 156,86 Q164,108 170,142 Q176,170 188,180 Q198,176 192,166 Q182,150 180,128 Q176,96 166,80 Q158,54 120,46 Q82,54 74,80 Z" fill="#c8b090"/>
        <ellipse cx="54" cy="132" rx="14" ry="22" fill="#c8b090"/>
        <ellipse cx="186" cy="132" rx="14" ry="22" fill="#c8b090"/>
        <path d="M52,116 Q40,130 42,150 Q44,164 56,158 Q60,142 58,122 Z" fill="#c8b090"/>
        <path d="M188,116 Q200,130 198,150 Q196,164 184,158 Q180,142 182,122 Z" fill="#c8b090"/>
  
  <!-- 头部 -->
  <ellipse cx="120" cy="118" rx="46" ry="52" fill="#f2d9b8"/>
  <!-- 耳朵 -->
  <ellipse cx="74" cy="122" rx="6" ry="11" fill="#ecc8a4"/>
  <ellipse cx="166" cy="122" rx="6" ry="11" fill="#ecc8a4"/>
  <!-- 颈 -->
  <path d="M106,168 Q120,176 134,168 L134,180 Q120,186 106,180 Z" fill="#f2d9b8"/>
  <!-- 制服领 -->
  <path d="M86,196 Q120,210 154,196 L150,232 Q120,246 90,232 Z" fill="#e8ecf2"/>
  <path d="M120,204 L120,238" stroke="#a8d8ff" stroke-width="6"/>
  <path d="M92,196 L120,208 L148,196" stroke="#9aa8b8" stroke-width="3" fill="none"/>
  <!-- 军衔领章 -->
  <rect x="92" y="200" width="20" height="8" rx="2" fill="#a8d8ff"/>
  <rect x="128" y="200" width="20" height="8" rx="2" fill="#a8d8ff"/>
  <circle cx="102" cy="204" r="2.2" fill="#fff"/>
  <circle cx="138" cy="204" r="2.2" fill="#fff"/>
  
  <!-- 眼睛 -->
  <ellipse cx="102" cy="118" rx="7.5" ry="8.5" fill="#fff"/>
  <ellipse cx="98" cy="118" rx="7.5" ry="8.5" fill="#fff"/>
  <circle cx="102" cy="119" r="4.6" fill="#27425e"/>
  <circle cx="98" cy="119" r="4.6" fill="#27425e"/>
  <circle cx="103.8" cy="116.6" r="1.4" fill="#fff"/>
  <circle cx="99.8" cy="116.6" r="1.4" fill="#fff"/>
  <!-- 眉 -->
  <path d="M94,105 Q102,100 110,105" stroke="#5a4030" stroke-width="2" fill="none"/>
  <path d="M90,105 Q98,100 106,105" stroke="#5a4030" stroke-width="2" fill="none"/>
  <!-- 嘴 -->
  <path d="M110,140 Q120,146 130,140" stroke="#b06060" stroke-width="2.4" fill="none" stroke-linecap="round"/>
  <!-- 腮红 -->
  <ellipse cx="88" cy="132" rx="6" ry="3.5" fill="#f0a8a8" opacity="0.5"/>
  <ellipse cx="112" cy="132" rx="6" ry="3.5" fill="#f0a8a8" opacity="0.5"/>
  <!-- 舰船侧影水印 -->
  <g transform="translate(0,0)" fill="#000" opacity="0.45">
    <path d="M56,292 L64,280 L132,280 L138,272 L178,272 L184,280 L204,280 L208,292 Z"/>
  </g>
  <!-- 底部信息条 -->
  <rect x="0" y="324" width="240" height="36" fill="#0a1420" opacity="0.85"/>
  <rect x="0" y="324" width="240" height="2.5" fill="#ffd700"/>
  <text x="120" y="342" font-size="13" font-weight="bold" text-anchor="middle" fill="#ffffff" font-family="Arial">OMAHA</text>
  <text x="120" y="356" font-size="10" text-anchor="middle" fill="#a8d8ff" font-family="'Microsoft YaHei', sans-serif">奥马哈 · 轻巡洋舰 · 奥马哈级</text>
</svg>